<svg id="Layer_1" data-name="Layer 1" xmlns="http://www.w3.org/2000/svg" viewBox="0 0 1089.57 342.78"><defs><style>.cls-1{fill:#b31e3b;}.cls-2{fill:#fbfcfc;}.cls-3{fill:#606161;opacity:0.7;}</style></defs><path class="cls-1" d="M254.73,199.34Q242,182.14,217.4,169.22q41.52-23.61,41.52-68.43,0-41.12-31.21-65c-20.78-15.94-65.83-23.88-106.57-23.88H89.27l-.27.27h-.23A82,82,0,0,0,6.35,97.15V247.26C4.91,292.54,42.59,330.11,89,330l.31.27h54.82c34.46,0,75.56-8,94.67-24s28.69-37.34,28.69-64.05Q267.45,216.53,254.73,199.34Z"/><path class="cls-2" d="M139.7,142.2C130.66,130,117.09,124,99,124q-32.44,0-45.32,27.56V94.63q0-22.22,7.09-30.24c4.73-5.31,11.4-8,20-8,7.71,0,13.84,2.29,18.45,6.9s6.9,12.53,6.9,23.77V98.2h46.21v-8q0-37.74-18.45-58-16.33-18-46.48-20c-2.56-.2-5.24-.27-8-.27Q41.22,11.94,23,32.6T4.78,92.85V252q0,37.8,19.12,58T79,330.22c2.87,0,5.66-.08,8.38-.27q29.88-2.15,46.75-20,19.08-20.25,19.11-58V195.08Q153.26,160.42,139.7,142.2Z"/><path class="cls-1" d="M300.86,69.3q0-26.7,12.73-41T351.76,14q25.46,0,38.18,14.3t12.72,41v6.92H370V67.1q0-11.92-4.56-16.81t-12.72-4.87q-8.18,0-12.73,4.87T335.42,67.1a39,39,0,0,0,5,20A82.81,82.81,0,0,0,353,103.39q7.55,7.71,16.18,15.4a154.24,154.24,0,0,1,16.18,16.81A85.56,85.56,0,0,1,398,156.34q5,11.63,5,27.33,0,26.72-13,41T351.45,239Q326,239,313,224.68t-13-41V170.16H332.6v15.71q0,11.94,4.87,16.65t13,4.72q8.16,0,13-4.72t4.87-16.65a39,39,0,0,0-5-20,83.15,83.15,0,0,0-12.57-16.34q-7.54-7.7-16.18-15.39a153.34,153.34,0,0,1-16.18-16.81,85.56,85.56,0,0,1-12.57-20.74Q300.87,85,300.86,69.3Z"/><path class="cls-1" d="M422.77,16.52h34.56V236.46H422.77Z"/><path class="cls-1" d="M597.78,16.52,561.64,123.35l38.65,113.11H563.84l-28.27-87-28.6,87H474.61l38.65-113.11L477.12,16.52h35.82L539,97.58l26.71-81.06Z"/><path class="cls-1" d="M669.73,16.52q27,0,39.11,12.57t12.1,38V75q0,17-5.34,28a33.91,33.91,0,0,1-17,16.34q14.14,5.35,20,17.44t5.81,29.69V184.3q0,25.45-13.2,38.81t-39.27,13.35H617.57V16.52Zm-17.6,30v58.13h13.51q9.74,0,15.24-5t5.5-18.22V69.1q0-11.94-4.24-17.28t-13.36-5.34Zm0,91V205h19.8q8.79,0,13.35-4.71t4.56-17V164.19q0-15.39-5.19-21.05t-17.12-5.65Z"/><path class="cls-1" d="M857,236.46H822.11l-6-39.9H773.73l-6,39.9H736L771.21,16.52H821.8Zm-78.87-69.75h33.31L794.78,55.48Z"/><path class="cls-1" d="M868.61,69.3q0-26.7,12.73-41T919.51,14Q945,14,957.69,28.3t12.72,41v6.92H937.74V67.1q0-11.92-4.56-16.81t-12.72-4.87q-8.18,0-12.73,4.87T903.18,67.1a39,39,0,0,0,5,20,82.81,82.81,0,0,0,12.57,16.33q7.54,7.71,16.18,15.4a154.24,154.24,0,0,1,16.18,16.81,85.56,85.56,0,0,1,12.57,20.74q5,11.63,5,27.33,0,26.72-13,41T919.2,239q-25.46,0-38.49-14.29t-13-41V170.16h32.68v15.71q0,11.94,4.87,16.65t13,4.72q8.16,0,13-4.72t4.87-16.65a39,39,0,0,0-5-20,83.15,83.15,0,0,0-12.57-16.34q-7.55-7.7-16.18-15.39a154.28,154.28,0,0,1-16.18-16.81,85.56,85.56,0,0,1-12.57-20.74Q868.62,85,868.61,69.3Z"/><path class="cls-1" d="M1025.08,109.21h47.45v31.42h-47.45V205h59.7v31.42H990.52V16.52h94.26V47.94h-59.7Z"/><path class="cls-3" d="M314.65,267.32c9.8,0,14.29,5.93,14.29,15.64v31.71c0,9.62-4.49,15.55-14.29,15.55H299.92v-62.9Zm-.09,56.52c5,0,7.46-3.15,7.46-8.9V282.6c0-5.75-2.42-8.9-7.55-8.9h-7.54v50.14Z"/><path class="cls-3" d="M420.76,295.18v6.29H405.39v22.37h18.87v6.38H398.39v-62.9h25.87v6.38H405.39v21.48Z"/><path class="cls-3" d="M520.84,282.42v1.7h-6.65v-2.06c0-5.66-2.15-9-7.18-9s-7.19,3.33-7.19,8.9c0,14.11,21.11,15.45,21.11,33.15,0,9.52-4.58,15.73-14.19,15.73s-14.11-6.21-14.11-15.73v-3.59h6.56v4c0,5.66,2.34,9,7.37,9s7.36-3.33,7.36-9c0-14-21-15.36-21-33.06,0-9.71,4.49-15.73,13.93-15.73S520.84,272.89,520.84,282.42Z"/><path class="cls-3" d="M596.94,267.32v62.9h-7v-62.9Z"/><path class="cls-3" d="M694.78,282.51v5.39h-6.65v-5.75c0-5.66-2.25-9.08-7.37-9.08s-7.37,3.42-7.37,9.08v33.24c0,5.66,2.34,9.08,7.37,9.08s7.37-3.42,7.37-9.08V302.81h-6.47v-6.29h13.12V315c0,9.53-4.5,15.82-14.2,15.82s-14.1-6.29-14.1-15.82V282.51c0-9.53,4.49-15.82,14.1-15.82S694.78,273,694.78,282.51Z"/><path class="cls-3" d="M770.51,330.22h-6.29v-62.9h8.9l14.55,45.47V267.32h6.2v62.9H786.6l-16.09-50.86Z"/><path class="cls-3" d="M886.32,295.18v6.29H871v22.37h18.87v6.38H864v-62.9h25.88v6.38H871v21.48Z"/><path class="cls-3" d="M973.2,267.32c9.88,0,14,5,14,14.38v5.12c0,6.92-2.42,11.23-7.81,12.94,5.75,1.71,7.9,6.38,7.9,13.12v9.79c0,2.78.09,5.39,1.26,7.55h-7.1c-.81-1.8-1.16-3.42-1.16-7.64V312.7c0-7.1-3.33-9.35-9.17-9.35h-4.94v26.87h-7v-62.9ZM972,297c5.46,0,8.73-1.76,8.73-8.46v-5.9c0-5.55-2-8.46-7.14-8.46h-6.7V297Z"/><path class="cls-3" d="M1084.69,282.42v1.7H1078v-2.06c0-5.66-2.15-9-7.18-9s-7.19,3.33-7.19,8.9c0,14.11,21.11,15.45,21.11,33.15,0,9.52-4.58,15.73-14.19,15.73s-14.11-6.21-14.11-15.73v-3.59H1063v4c0,5.66,2.34,9,7.37,9s7.36-3.33,7.36-9c0-14-21-15.36-21-33.06,0-9.71,4.49-15.73,13.93-15.73S1084.69,272.89,1084.69,282.42Z"/></svg>